<svg width="40" height="40" viewBox="0 0 40 40" fill="none" xmlns="http://www.w3.org/2000/svg">
<path d="M10 31.8748H26.535C27.1255 31.875 27.697 31.666 28.1483 31.2848C28.5995 30.9038 28.9012 30.3755 29 29.7932L33.395 3.95988C33.4942 3.37797 33.796 2.8499 34.2472 2.46922C34.6983 2.08852 35.2697 1.87975 35.86 1.87988H37.5" stroke="#7D7D7D" stroke-width="1.5" stroke-linecap="round" stroke-linejoin="round"/>
<path d="M13.125 36.875C12.7798 36.875 12.5 36.5952 12.5 36.25C12.5 35.9048 12.7798 35.625 13.125 35.625" stroke="#7D7D7D" stroke-width="1.5"/>
<path d="M13.125 36.875C13.4702 36.875 13.75 36.5952 13.75 36.25C13.75 35.9048 13.4702 35.625 13.125 35.625" stroke="#7D7D7D" stroke-width="1.5"/>
<path d="M25.625 36.875C25.2798 36.875 25 36.5952 25 36.25C25 35.9048 25.2798 35.625 25.625 35.625" stroke="#7D7D7D" stroke-width="1.5"/>
<path d="M25.625 36.875C25.9702 36.875 26.25 36.5952 26.25 36.25C26.25 35.9048 25.9702 35.625 25.625 35.625" stroke="#7D7D7D" stroke-width="1.5"/>
<path d="M29.9215 24.3752H9.80324C8.68837 24.375 7.60552 24.0023 6.72677 23.3162C5.84802 22.6302 5.22377 21.67 4.95324 20.5885L2.53657 10.9218C2.49045 10.7375 2.48699 10.545 2.5264 10.3591C2.56584 10.1732 2.64714 9.99877 2.76412 9.849C2.88109 9.69924 3.03067 9.57812 3.2015 9.49485C3.37232 9.41159 3.55987 9.36837 3.7499 9.36847H32.4732" stroke="#7D7D7D" stroke-width="1.5" stroke-linecap="round" stroke-linejoin="round"/>
</svg>
