<svg width="240" height="64" viewBox="0 0 240 64" fill="none" xmlns="http://www.w3.org/2000/svg">
<g clip-path="url(#clip0_170_173)">
<path d="M218.143 6.2791L218.2 10.221C218.2 10.221 225.314 19.2311 227.343 22.4128C228.771 24.6091 230.343 27.0305 231.543 29.1986C232.714 31.3103 233.229 32.6055 233.743 33.8444C234.371 35.3086 235.086 38.1805 235.086 40.1234C235.086 43.2206 234.543 44.9944 234.171 46.0926C233.629 47.7256 232.543 50.119 231.286 51.6113C230.629 52.3996 229.943 53.1036 228.657 54.2298C229.4 54.6522 232.514 50.4005 232.514 50.4005L237.057 43.2769L234.914 32.2958L218.029 5.15283L218.143 6.2791Z" fill="url(#paint0_radial_170_173)"/>
<path d="M218.171 5.85669C218.171 5.85669 218.229 9.01023 218.229 10.221C216.8 12.6143 212.514 18.8369 211.029 21.4555C208.857 25.2848 207.114 28.5509 206.543 33.2812C206.171 36.294 206.486 39.0533 208.343 41.5593C209.6 43.2487 210.943 44.4594 213.286 45.276C215.714 46.1488 218.257 46.1488 219.571 45.8391C219.743 45.8109 219.286 46.008 218.914 46.0925C216.629 46.6275 213.543 46.3741 210.6 44.6847C207.343 42.8263 205.486 38.265 205.4 35.4211C205.314 32.5492 207.4 25.9324 207.4 25.9324C207.4 25.9324 211.229 17.9359 212.571 15.2328C213.914 12.5017 218.171 5.85669 218.171 5.85669Z" fill="url(#paint1_radial_170_173)"/>
<path d="M218.229 0.0282133C218.143 -0.0562566 218.057 5.66514e-05 217.971 0.14084C217.971 0.14084 213.229 8.16548 211.8 10.6996C209.371 15.092 206.657 20.2728 204.343 26.5518C203.571 28.6635 202.914 32.2112 202.714 34.689C202.514 37.026 203.2 39.9261 203.771 41.5029C204.886 44.4312 206.457 45.8953 208.286 47.275C211.629 48.4294 217.4 46.8527 220.143 45.5575C215.514 47.0779 211.171 45.473 208.686 42.5729C206.429 39.9543 205.829 37.8426 205.914 34.2104C206 30.7471 207.6 26.7488 207.829 26.0449C209.429 21.4836 211.771 17.429 213.257 14.4726C213.714 13.5715 214.6 12.0229 215.457 10.5306C216.371 8.95386 217.314 7.4334 217.743 6.70133C217.914 6.41977 218 6.27898 218 6.27898C218.029 6.22267 218.086 6.19451 218.114 6.19451C218.143 5.60322 218.543 4.58959 218.571 3.66042C218.714 2.28074 218.286 0.901068 218.229 0.0282133Z" fill="url(#paint2_radial_170_173)"/>
<path d="M229.057 53.8355C226.771 55.4122 222 57.7774 216.771 57.1016C210.086 56.2569 206.029 52.5684 203.543 48.6546C202 46.2613 200.143 40.799 201.971 34.6608C203.514 29.5363 208.743 25.6507 214.114 25.3691C218.943 25.1157 222.143 27.1711 224.029 29.1421C224.943 30.0713 226.886 32.718 226.771 36.2094C226.686 38.9406 225.771 40.9116 223.571 43.2204C222.029 44.8535 219.171 46.0079 219.171 46.0079L219.486 47.6692L224.029 44.8535L227.657 39.3348L228.229 34.9705L226.743 29.8179C226.143 29.3392 220.343 24.3555 214.714 24.8905C206.914 25.5944 203 30.6344 202.086 32.9714C201.571 33.6472 201.114 34.0132 201.114 34.0132C201.114 34.0132 199.486 36.1813 199.657 40.6863C199.857 45.1914 202.171 55.9754 207.971 57.9182C213.743 59.8328 216.314 59.5513 218.914 59.6639C221.514 59.7484 226.486 57.9745 228.114 56.7074C229.714 55.4404 229.686 53.4131 229.057 53.8355Z" fill="url(#paint3_radial_170_173)"/>
<path d="M221.086 45.1069C218.171 46.5148 212.743 48.4013 208.286 47.275C211.943 49.5275 214.629 49.9217 217.029 49.8373C219.6 49.7809 221.2 49.2178 222.971 48.345C227.457 46.1487 229.543 41.6718 229.857 38.0115C230.314 32.7462 227.8 28.6072 224.171 25.8478C220.514 23.0885 216.714 22.8632 214.314 22.8351C211.143 22.7787 206.771 24.2429 203.486 27.2275C199.771 30.4937 196.314 36.9415 196.429 44.1215C196.543 50.5693 200.714 57.2706 207.029 60.9873C213.914 62.4796 221.457 59.2416 227 55.1589C224.429 56.623 221.343 57.4396 218.143 57.4677C208.371 57.5522 200.6 49.4712 200.571 40.433C200.571 39.5038 200.629 36.8007 201.486 34.4074C202.771 30.55 207 25.7633 213.686 25.0876C217.971 24.6652 222.571 26.4673 225.057 29.9868C227.086 32.8025 227.029 35.4492 226.943 36.6881C226.829 38.096 226.4 39.7572 225.2 41.5311C223.943 43.502 222.143 44.6283 221.086 45.1069Z" fill="url(#paint4_radial_170_173)"/>
<path d="M238.171 34.154C234.143 24.4963 226.057 12.8676 218.343 0.197164C218.286 0.0563806 218.2 0.0563806 218.143 0.0845373C217.457 1.52052 218.171 4.73038 218.114 6.19452C218.2 6.16637 218.257 6.19452 218.314 6.27899C224.457 15.5707 231 25.3973 234.229 33.1967C235.114 35.3366 235.771 37.9552 235.714 40.4048C235.514 47.5848 231.543 52.3714 227.2 55.187C221.771 58.9882 214.343 62.1699 207.086 61.0155C210.314 62.9301 214.171 64.0001 218.257 64.0001C230.257 64.0001 240 54.455 240 42.7137C240 39.6727 239.257 36.8008 238.171 34.154Z" fill="url(#paint5_radial_170_173)"/>
<path d="M151.514 63.6623H150.857V53.188H152.229L155.714 61.7194L159.229 53.188H160.543V63.6623H159.4V54.2861L155.429 64.0001L151.514 54.4269V63.6623Z" fill="#E25B00"/>
<path d="M167.857 63.6622V53.6948L166.857 53.8074V53.3569L168.971 53.1035V63.6904H167.857V63.6622Z" fill="#E25B00"/>
<path d="M179.943 63.6623V60.3398H175L180.029 53.188H181.057V59.833H182.543V60.3398H181.057V63.6623H179.943ZM179.943 59.8048V54.1172L175.971 59.8048H179.943Z" fill="#E25B00"/>
<path d="M122.086 44.6283V46.1206H108.143V23.173H121.943V24.6653H112.571V33.5065H116.943V34.9988H112.571V44.6283H122.086ZM4 43.671C6.4 45.642 9.45714 46.6275 12.8286 46.6275C16.2571 46.6275 19.3429 45.6138 21.7714 43.6147C24.4 41.4185 25.7143 38.5465 25.7143 34.9988C25.7143 31.2539 24.4286 28.1849 21.8571 25.8197C19.4286 23.5672 16.3143 22.4409 12.8 22.4409C9.31429 22.4409 6.17143 23.6235 3.71429 26.0168C1.22857 28.382 0 31.3947 0 35.0551C0 38.6028 1.34286 41.503 4 43.671ZM8.17143 28.7198C9.11429 26.3265 10.6571 25.144 12.8 25.144C14.4571 25.144 15.7429 25.876 16.7143 27.3402C17.8857 29.114 18.4857 31.6763 18.4857 34.9988C18.4857 37.195 18.1143 39.1096 17.4 40.7146C16.4571 42.7982 15 43.84 13.0571 43.84C11.0571 43.84 9.54286 42.7982 8.45714 40.7427C7.62857 39.1378 7.22857 37.2513 7.22857 35.0269C7.2 32.4365 7.54286 30.3529 8.17143 28.7198ZM37 46.0925V23.2293H29.8V46.1206H37V46.0925ZM57.2571 46.0925V42.9953H48.7429V23.2293H41.3714V46.1206H57.2571V46.0925ZM87.7714 27.7907L101.971 46.1206H103.543V23.1448H102.057L102 38.9407L89.8 23.1448H85.8857V46.0925H87.7429L87.7714 27.7907ZM174.029 23.1448H168.886L176.829 35.1396V46.0925H181.2V34.4356L188.857 23.1448H186.6L180.229 32.521L174.029 23.1448ZM137 35.3648C137.057 35.3648 137.114 35.3367 137.171 35.3367C138.8 35.1677 140.171 34.6046 141.2 33.5909C142 32.8307 142.571 31.9579 142.857 30.9161C143 30.5219 143.086 30.0714 143.086 29.5927C143.086 29.5082 143.086 29.4519 143.086 29.3956C143.086 29.2548 143.086 29.114 143.086 28.9733C143.086 28.6917 143.029 28.4101 142.943 28.1286C142.686 26.8897 142.114 25.8197 141.2 24.975C140.629 24.44 140 24.0458 139.257 23.7361C138.857 23.539 138.4 23.4264 137.829 23.3138C137.686 23.2856 137.543 23.2575 137.4 23.2575C137.257 23.2293 137.114 23.2293 136.971 23.2011H136.914C136.657 23.173 136.429 23.173 136.171 23.173H126.371V23.2293V35.393V46.1206H130.771V24.6653H133.143C135.114 24.6653 136.571 25.1721 137.514 26.1576C138.229 26.9178 138.6 27.9315 138.657 29.1985C138.629 30.5219 138.257 31.62 137.486 32.4084C136.543 33.3938 135.086 33.9007 133.114 33.9007H131.686L132.514 35.393L138.343 46.1206H143.171L137 35.3648ZM168.171 34.9143V33.5909H159.429V35.0551H163.8V43.5021C163.4 44.037 162.743 44.4594 161.829 44.7973C160.914 45.1352 159.943 45.2759 158.886 45.2759C156.257 45.2759 154.2 44.2341 152.714 42.1224C151.371 40.2078 150.714 37.7581 150.714 34.7454C150.714 31.3666 151.457 28.7198 152.914 26.8334C154.371 24.9469 156.514 23.9895 159.314 23.9895C160.714 23.9895 162.029 24.4119 163.229 25.2847C164.086 25.876 165.029 26.8615 166.057 28.1567L167.371 27.2557C166.343 25.7634 165.029 24.609 163.457 23.7643C161.886 22.9196 160.2 22.4972 158.371 22.4972C154.857 22.4972 151.943 23.6517 149.6 25.9605C147.257 28.2693 146.057 31.2539 146.057 34.8861C146.057 38.1242 147.229 40.9117 149.543 43.2487C151.857 45.5857 154.657 46.7401 157.914 46.7401C161.8 46.7401 165.229 45.5575 168.229 43.1923L168.171 34.9143ZM71.8286 44.6002V34.9706H76.2V33.4783H71.8286V24.6653H81.2286V23.173H67.4286V46.1206H81.3714V44.6283H71.8286V44.6002Z" fill="black"/>
</g>
<defs>
<radialGradient id="paint0_radial_170_173" cx="0" cy="0" r="1" gradientUnits="userSpaceOnUse" gradientTransform="translate(225.543 38.5791) scale(17.5004 28.0566)">
<stop offset="0.1613" stop-color="#F8C954"/>
<stop offset="0.2289" stop-color="#F7C553"/>
<stop offset="0.2901" stop-color="#F3BA4E"/>
<stop offset="0.3489" stop-color="#ECA847"/>
<stop offset="0.4061" stop-color="#E28E3D"/>
<stop offset="0.4622" stop-color="#D56D31"/>
<stop offset="0.5174" stop-color="#C64421"/>
<stop offset="0.5711" stop-color="#B4140F"/>
<stop offset="0.5813" stop-color="#B00A0B"/>
<stop offset="0.7346" stop-color="#820D07"/>
<stop offset="0.9018" stop-color="#530808"/>
<stop offset="1" stop-color="#3C0508"/>
</radialGradient>
<radialGradient id="paint1_radial_170_173" cx="0" cy="0" r="1" gradientUnits="userSpaceOnUse" gradientTransform="translate(216.051 29.6857) scale(17.2237 28.2405)">
<stop offset="0.1273" stop-color="#F8C954"/>
<stop offset="0.1926" stop-color="#EBA647"/>
<stop offset="0.3363" stop-color="#CA4E25"/>
<stop offset="0.4424" stop-color="#B00A0B"/>
<stop offset="0.5198" stop-color="#A30A0B"/>
<stop offset="0.6634" stop-color="#80090A"/>
<stop offset="0.8558" stop-color="#490709"/>
<stop offset="1" stop-color="#1B0608"/>
</radialGradient>
<radialGradient id="paint2_radial_170_173" cx="0" cy="0" r="1" gradientUnits="userSpaceOnUse" gradientTransform="translate(210.378 39.2071) scale(17.1176 25.1283)">
<stop stop-color="#F77A11"/>
<stop offset="0.0537869" stop-color="#F67310"/>
<stop offset="0.133" stop-color="#F25F0E"/>
<stop offset="0.2274" stop-color="#EB3F0B"/>
<stop offset="0.2909" stop-color="#E62509"/>
<stop offset="0.3382" stop-color="#C92008"/>
<stop offset="0.4331" stop-color="#941806"/>
<stop offset="0.5295" stop-color="#671104"/>
<stop offset="0.6254" stop-color="#420B03"/>
<stop offset="0.7206" stop-color="#250601"/>
<stop offset="0.8152" stop-color="#100301"/>
<stop offset="0.9087" stop-color="#040100"/>
<stop offset="1"/>
</radialGradient>
<radialGradient id="paint3_radial_170_173" cx="0" cy="0" r="1" gradientUnits="userSpaceOnUse" gradientTransform="translate(213.528 45.9358) rotate(35.5359) scale(17.7926 26.699)">
<stop stop-color="#F8C954"/>
<stop offset="0.2185" stop-color="#E79D43"/>
<stop offset="0.7105" stop-color="#BD2D18"/>
<stop offset="0.8606" stop-color="#B00A0B"/>
</radialGradient>
<radialGradient id="paint4_radial_170_173" cx="0" cy="0" r="1" gradientUnits="userSpaceOnUse" gradientTransform="translate(216.659 36.6003) rotate(-3.58262) scale(37.4068 34.1578)">
<stop offset="0.0861455" stop-color="#F7C44D"/>
<stop offset="0.2788" stop-color="#F98A1C"/>
<stop offset="0.3173" stop-color="#F7801A"/>
<stop offset="0.3826" stop-color="#F26515"/>
<stop offset="0.4661" stop-color="#EA3A0D"/>
<stop offset="0.503" stop-color="#E62509"/>
<stop offset="0.5911" stop-color="#B51D07"/>
<stop offset="0.7388" stop-color="#681104"/>
<stop offset="0.861" stop-color="#300802"/>
<stop offset="0.9514" stop-color="#0D0201"/>
<stop offset="1"/>
</radialGradient>
<radialGradient id="paint5_radial_170_173" cx="0" cy="0" r="1" gradientUnits="userSpaceOnUse" gradientTransform="translate(218.723 52.2751) rotate(-69.8121) scale(45.1103 37.4964)">
<stop stop-color="#E62509"/>
<stop offset="0.0410129" stop-color="#C11F08"/>
<stop offset="0.1043" stop-color="#8E1706"/>
<stop offset="0.1688" stop-color="#631004"/>
<stop offset="0.2336" stop-color="#3F0A02"/>
<stop offset="0.2985" stop-color="#230601"/>
<stop offset="0.3638" stop-color="#100301"/>
<stop offset="0.4297" stop-color="#040100"/>
<stop offset="0.497"/>
</radialGradient>
<clipPath id="clip0_170_173">
<rect width="240" height="64" fill="white"/>
</clipPath>
</defs>
</svg>
